<?xml version="1.0" encoding="utf-8"?>
<!-- Generator: Adobe Illustrator 19.0.0, SVG Export Plug-In . SVG Version: 6.00 Build 0)  -->
<svg version="1.1" id="Layer_1" xmlns="http://www.w3.org/2000/svg" xmlns:xlink="http://www.w3.org/1999/xlink" x="0px" y="0px"
	 viewBox="0 0 1024 1024" style="enable-background:new 0 0 1024 1024;" xml:space="preserve">
<g>
	<path d="M800,591H672c-64,0-64,64-64,64h256C864,655,864,591,800,591z"/>
	<path d="M992,239c0,0-192-64-352-64c-64,0-128,64-128,64s-64-64-128-64c-160,0-352,64-352,64v608l448-32c0,0-1.3,32,31.4,32
		c32.6,0,32.6-32,32.6-32l241.4,17.2c4.8-43,41.3-76.4,85.6-76.4c47.6,0,86.2,38.6,86.2,86.2c0,0.8,0,1.7-0.1,2.5L992,847V239z
		 M416,719c-193,0-320,64-320,64V271c0,0,128-32,256-32c64,0,128,64,128,64v479.6C480,777.3,478.1,719,416,719z M928,751
		c0,0-97-32-320-32c-62,0-64,64-64,64V303c0,0,64-64,128-64c128,0,256,64,256,64V751z"/>
	<path d="M833,795.6V812c22.4,0,42.3,10.8,54.8,27.6L908,841C893.7,814,865.5,795.6,833,795.6z"/>
	<path d="M832.9,824.6v11l36.5,2.6C859.7,829.8,846.9,824.6,832.9,824.6z"/>
	<path d="M608,399h256c0,0,0-64-64-64H672C608,335,608,399,608,399z"/>
	<path d="M352,463H224c-64,0-64,64-64,64h256C416,527,416,463,352,463z"/>
	<path d="M352,335H224c-64,0-64,64-64,64h256C416,399,416,335,352,335z"/>
	<path d="M800,463H672c-64,0-64,64-64,64h256C864,527,864,463,800,463z"/>
	<path d="M352,591H224c-64,0-64,64-64,64h256C416,655,416,591,352,591z"/>
	<path d="M918,881h-16.4c0-15.5-5.1-29.9-13.8-41.4l-18.3-1.3c12,10.3,19.6,25.6,19.6,42.7h-16.4c0-10.7-4.1-20.7-11.7-28.3
		c-7.5-7.5-17.5-11.7-28.1-11.7v-5.3l-47.6-3.4c-0.4,3.2-0.6,6.5-0.6,9.8c0,47.6,38.6,86.2,86.2,86.2c46.8,0,84.8-37.2,86.1-83.7
		L908,841C914.4,852.9,918,866.5,918,881z M844.3,880.9c-6.3,0-11.3-5.1-11.3-11.3c0-6.3,5.1-11.3,11.3-11.3
		c6.3,0,11.3,5.1,11.3,11.3C855.6,875.8,850.5,880.9,844.3,880.9z"/>
</g>
</svg>
